<svg id="Layer_1" data-name="Layer 1" xmlns="http://www.w3.org/2000/svg" viewBox="0 0 294 128"><defs><style>.cls-1{fill:#fff;}</style></defs><title>markdown-han-logo</title><rect x="5" y="5" width="284" height="118" rx="10"/><path d="M1093,487a5,5,0,0,1,5,5v98a5,5,0,0,1-5,5H829a5,5,0,0,1-5-5V492a5,5,0,0,1,5-5h264m0-10H829a15,15,0,0,0-15,15v98a15,15,0,0,0,15,15h264a15,15,0,0,0,15-15V492a15,15,0,0,0-15-15Z" transform="translate(-814 -477)"/><path class="cls-1" d="M864,575V536l20,25,20-25v39h20V507H904l-20,25-20-25H844v68Z" transform="translate(-814 -477)"/><path class="cls-1" d="M998,541H978V507H958v34H938l30,35Z" transform="translate(-814 -477)"/><path class="cls-1" d="M1019.6,542.42c-2.69-2.69-8.45-7-12.6-9.91l6.3-7c4.07,2.61,10.07,6.53,13,9.14ZM1079,563.63h-14.9a134.74,134.74,0,0,1,14.75,5.07l-5.07,8.22c-4.38-2.23-13.37-5.45-19.75-7.3l3.92-6h-3.53c-3.69,5.92-10.38,10.6-21.75,13.37a40.06,40.06,0,0,0-6.37-8.45c6.45-1.08,11.06-2.77,14.21-4.92h-12.76v-7.76c-2.76,6.45-5.76,12.91-8.83,18.9l-9.45-6.38a208.77,208.77,0,0,0,12-24l8.38,6.45c-.62,1.54-1.23,3.08-1.92,4.61h18.75a18.47,18.47,0,0,0,.53-2.22h-16.44v-8.07h16.75V543h-16.6V526.67h16.6V524.9h-10.83v-9.06h-7.07l-6.84,6.68c-2.38-2.92-7.61-7.6-11.45-10.91l7-6.38c3.23,2.54,7.92,6.23,10.76,9v-6.76h7.61v-3.68h10.68v3.68h11.14v-3.68h11.29v3.68h7.76v8.38h-7.76v9.06h-11.68v1.77h17.45V543h-17.45v2.23h18.37v8.07h-18.6a21.46,21.46,0,0,1-.38,2.22H1079ZM1047.49,536v-2.38h-6.61V536Zm-.15-17.9h11.14v-2.23h-11.14Zm10.75,15.52V536h6.84v-2.38Z" transform="translate(-814 -477)"/></svg>